<mxfile host="app.diagrams.net" modified="2023-05-02T02:16:38.260Z" agent="Mozilla/5.0 (Macintosh; Intel Mac OS X 10_15_7) AppleWebKit/537.36 (KHTML, like Gecko) Chrome/112.0.0.0 Safari/537.36" version="21.2.3" etag="k7kRm5xmYmIR3S_RPXjG" type="github">
  <diagram name="Halaman-1" id="SpZQbBevdrphCPUMXFEd">
    <mxGraphModel>
      <root>
        <mxCell id="0" />
        <mxCell id="1" parent="0" />
      </root>
    </mxGraphModel>
  </diagram>
</mxfile>
